# xmcd
#
# Track frame offsets:
#	150
#	30913
#	48421
#	62583
#	79892
#	90802
#	104024
#	115435
#	126320
#	145162
#	160664
#	177897
#	191386
#	208803
#	231661
#	247172
#
# Disc length: 3558 seconds
#
# Revision: 5
# Processed by: cddbd v1.5.2PL0 Copyright (c) Steve Scherf et al.
# Submitted via: EasyCDDAExtractor 15.3.0.1
#
DISCID=de0de410
DTITLE=Rocio Durcal - Su Historia Y Exitos Musicales Vol. 3 - CD 1
DYEAR=2004
DGENRE=Latin
TTITLE0=Amor Eterno
TTITLE1=Con Todo Y Mi Tristeza
TTITLE2=El Farsante
TTITLE3=El Dia Que Me Acaricies Llorare
TTITLE4=Todo
TTITLE5=Infidelidad
TTITLE6=Obligado
TTITLE7=Yo Me Voy
TTITLE8=Inocente Pobre Amiga
TTITLE9=Mejor Contigo
TTITLE10=Que Esperabas De Mi
TTITLE11=Ya Te Olvide
TTITLE12=Como Me Duele Irte Perdiendo
TTITLE13=El Amor Mas Bonito
TTITLE14=No Me Vuelvo A Enamorar
TTITLE15=Como Tu Mujer
EXTD=
EXTT0=
EXTT1=
EXTT2=
EXTT3=
EXTT4=
EXTT5=
EXTT6=
EXTT7=
EXTT8=
EXTT9=
EXTT10=
EXTT11=
EXTT12=
EXTT13=
EXTT14=
EXTT15=
PLAYORDER=
